# xmcd
#
# Track frame offsets: 
#        183
#        17970
#        35053
#        54963
#        72510
#        94410
#        108883
#        130250
#        150203
#        169270
#        187260
#        199745
#
# Disc length: 2919 seconds
#
# Revision: 0
# Processed by: cddbd v1.5.2PL0 Copyright (c) Steve Scherf et al.
# Submitted via: ExactAudioCopy v0.99pb5
#
DISCID=a70b650c
DTITLE=Double J - The Hitman
DYEAR=1991
DGENRE=Rap
TTITLE0=Manslaughter
TTITLE1=Concrete Jungle
TTITLE2=Girl From Wisconsin
TTITLE3=FunkyTown
TTITLE4=If it ain't a Caddy (It ain't a Car)
TTITLE5=Gangsta Sh--
TTITLE6=The Hitman
TTITLE7=Unsolved Mysteries
TTITLE8=Common Denominator
TTITLE9=Let's Make Love
TTITLE10=Double J'Z Tantrum
TTITLE11=Operation Desert Storm - Rumble It
EXTD=
EXTT0=Manslaughter
EXTT1=
EXTT2=
EXTT3=
EXTT4=
EXTT5=
EXTT6=
EXTT7=
EXTT8=
EXTT9=
EXTT10=
EXTT11=
PLAYORDER=
